<svg data-v-0dd9719b="" version="1.0" xmlns="http://www.w3.org/2000/svg" xmlns:xlink="http://www.w3.org/1999/xlink" width="100%" height="100%" viewBox="0 0 340.000000 250.000000" preserveAspectRatio="xMidYMid meet" color-interpolation-filters="sRGB" style="margin: auto;"> <rect data-v-0dd9719b="" x="0" y="0" width="100%" height="100%" fill="#feffff" fill-opacity="1" class="background"></rect> <rect data-v-0dd9719b="" x="0" y="0" width="100%" height="100%" fill="url(#watermark)" fill-opacity="1" class="watermarklayer"></rect> <g data-v-0dd9719b="" fill="#0a0a0a" class="iconlinesvg-g iconlinesvg" transform="translate(80.08841133117676,106.84367370605469)"><g class="tp-name"><g transform="translate(0, 0)"><g data-gra="path-name" fill="#0a0a0a" transform="scale(1)"><path d="M13.98 0L2.73 0L2.73-33.97L13.23-33.97Q18.55-33.97 21.32-31.61Q24.08-29.24 24.08-24.66L24.08-24.66Q24.08-22.07 22.94-20.21Q21.79-18.34 19.81-17.48L19.81-17.48Q22.10-16.82 23.33-14.85Q24.57-12.88 24.57-9.99L24.57-9.99Q24.57-5.04 21.85-2.52Q19.13 0 13.98 0L13.98 0ZM14.42-14.77L9.59-14.77L9.59-5.69L13.98-5.69Q15.82-5.69 16.78-6.84Q17.73-7.98 17.73-10.08L17.73-10.08Q17.73-14.65 14.42-14.77L14.42-14.77ZM9.59-28.26L9.59-19.76L13.16-19.76Q17.20-19.76 17.20-23.94L17.20-23.94Q17.20-26.25 16.26-27.25Q15.33-28.26 13.23-28.26L13.23-28.26L9.59-28.26Z" transform="translate(-2.730101114856106, 35.84132745657247)"></path></g></g><g transform="translate(25, 2.3845379286234376)"><g><g class="imagesvg"><g><rect fill="#0a0a0a" fill-opacity="0" stroke-width="2" x="0" y="0" width="31.538935550583048" height="31.538935550583048" class="image-rect"></rect> <svg x="0" y="0" width="31.538935550583048" height="31.538935550583048" filtersec="colorsb5549254258" class="image-svg-svg primary" style="overflow: visible;"><svg xmlns="http://www.w3.org/2000/svg" viewBox="0.5819999575614929 0.29200002551078796 97.33200073242188 97.33200073242188"><path fill="#0A0A0A" d="M49.248.292C22.372.292.582 22.082.582 48.958s21.79 48.666 48.666 48.666 48.666-21.79 48.666-48.666S76.13.292 49.248.292zm-10.812 56.96c-10.55 0-19.106-8.556-19.106-19.106S27.886 19.04 38.436 19.04s19.106 8.556 19.106 19.106-8.556 19.106-19.106 19.106z"></path></svg></svg> <!----></g></g></g></g><g transform="translate(60, 0)"><g data-gra="path-name" fill="#0a0a0a" transform="scale(1)"><path d="M9.33-35.84L9.33 0L2.71 0L2.71-35.84L9.33-35.84Z" transform="translate(-2.7067669172932334, 35.84132745657247)"></path></g></g><g transform="translate(70, 0)"><g data-gra="path-name" fill="#0a0a0a" transform="scale(1)"><path d="M1.63-11.83L1.63-13.44Q1.63-19.18 4.34-22.45Q7.05-25.71 11.83-25.71L11.83-25.71Q16.66-25.71 19.37-22.45Q22.07-19.18 22.07-13.39L22.07-13.39L22.07-11.78Q22.07-6.02 19.39-2.78Q16.71 0.47 11.88 0.47L11.88 0.47Q7.02 0.47 4.33-2.79Q1.63-6.04 1.63-11.83L1.63-11.83ZM8.26-13.44L8.26-11.78Q8.26-5.02 11.88-5.02L11.88-5.02Q15.21-5.02 15.47-10.66L15.47-10.66L15.49-13.44Q15.49-16.89 14.54-18.56Q13.58-20.23 11.83-20.23L11.83-20.23Q10.15-20.23 9.21-18.56Q8.26-16.89 8.26-13.44L8.26-13.44Z" transform="translate(-1.6333938294010888, 35.84132745657247)"></path></g></g><g transform="translate(94, 0)"><g data-gra="path-name" fill="#0a0a0a" transform="scale(1)"><path d="M13.98 0L2.73 0L2.73-33.97L13.23-33.97Q18.55-33.97 21.32-31.61Q24.08-29.24 24.08-24.66L24.08-24.66Q24.08-22.07 22.94-20.21Q21.79-18.34 19.81-17.48L19.81-17.48Q22.10-16.82 23.33-14.85Q24.57-12.88 24.57-9.99L24.57-9.99Q24.57-5.04 21.85-2.52Q19.13 0 13.98 0L13.98 0ZM14.42-14.77L9.59-14.77L9.59-5.69L13.98-5.69Q15.82-5.69 16.78-6.84Q17.73-7.98 17.73-10.08L17.73-10.08Q17.73-14.65 14.42-14.77L14.42-14.77ZM9.59-28.26L9.59-19.76L13.16-19.76Q17.20-19.76 17.20-23.94L17.20-23.94Q17.20-26.25 16.26-27.25Q15.33-28.26 13.23-28.26L13.23-28.26L9.59-28.26Z" transform="translate(-2.730101114856106, 35.84132745657247)"></path></g></g><g transform="translate(119, 0)"><g data-gra="path-name" fill="#0a0a0a" transform="scale(1)"><path d="M15.00 0L14.82-2.31Q12.76 0.47 9.31 0.47L9.31 0.47Q5.83 0.47 4.04-1.93Q2.24-4.32 2.24-8.89L2.24-8.89L2.24-25.25L8.84-25.25L8.84-8.73Q8.89-5.04 11.29-5.04L11.29-5.04Q13.56-5.04 14.56-7.00L14.56-7.00L14.56-25.25L21.21-25.25L21.21 0L15.00 0Z" transform="translate(-2.240082966035779, 35.84132745657247)"></path></g></g><g transform="translate(141, 0)"><g data-gra="path-name" fill="#0a0a0a" transform="scale(1)"><path d="M19.55-21.26L9.71-5.48L19.69-5.48L19.69 0L1.87 0L1.87-4.13L11.62-19.74L2.10-19.74L2.10-25.25L19.55-25.25L19.55-21.26Z" transform="translate(-1.8667358050298157, 35.84132745657247)"></path></g></g><g transform="translate(162, 0)"><g data-gra="path-name" fill="#0a0a0a" transform="scale(1)"><path d="M19.55-21.26L9.71-5.48L19.69-5.48L19.69 0L1.87 0L1.87-4.13L11.62-19.74L2.10-19.74L2.10-25.25L19.55-25.25L19.55-21.26Z" transform="translate(-1.8667358050298157, 35.84132745657247)"></path></g></g></g> <!----></g><defs v-gra="od"></defs></svg>